# xmcd
#
# Track frame offsets:
#	150
#	13668
#	27725
#	41104
#	54824
#	70748
#	83740
#	97461
#	109098
#	123390
#
# Disc length: 1835 seconds
# Revision: 2
# Processed by: cddbd v1.5.2PL0 Copyright (c) Steve Scherf et al.
# Submitted via: dBpowerAMP V12.0
#
DISCID=8607290a
DTITLE=Chris Young - Losing Sleep
DYEAR=2017
DGENRE=Country
TTITLE0=Losing Sleep
TTITLE1=Hangin' On
TTITLE2=Holiday
TTITLE3=Radio and the Rain
TTITLE4=Where I Go When I Drink
TTITLE5=She's Got a Way
TTITLE6=Leave Me Wanting More
TTITLE7=Trouble Looking
TTITLE8=Woke Up Like This
TTITLE9=Blacked Out
EXTD=
EXTT0=
EXTT1=
EXTT2=
EXTT3=
EXTT4=
EXTT5=
EXTT6=
EXTT7=
EXTT8=
EXTT9=
PLAYORDER=
